<?xml version="1.0" encoding="UTF-8"?>
<!DOCTYPE svg PUBLIC "-//W3C//DTD SVG 1.1//EN" "http://www.w3.org/Graphics/SVG/1.1/DTD/svg11.dtd">
<svg version="1.1" xmlns="http://www.w3.org/2000/svg" xmlns:xlink="http://www.w3.org/1999/xlink" x="0" y="0" width="98.246" height="98.244" viewBox="0, 0, 49.123, 49.122">
  <g id="Layer_2" transform="translate(-157.258, -157.632)">
    <path d="M181.819,159.031 C169.048,159.031 158.657,169.422 158.657,182.194 C158.657,194.965 169.048,205.356 181.819,205.356 C194.592,205.356 204.983,194.965 204.983,182.194 C204.983,169.422 194.592,159.031 181.819,159.031 z M181.819,206.754 C168.276,206.754 157.258,195.736 157.258,182.194 C157.258,168.651 168.276,157.632 181.819,157.632 C195.363,157.632 206.381,168.651 206.381,182.194 C206.381,195.736 195.363,206.754 181.819,206.754" fill="#000000"/>
    <path d="M177.953,179.369 C177.953,177.237 179.687,175.502 181.819,175.502 C183.951,175.502 185.686,177.237 185.686,179.369 C185.686,181.502 183.951,183.236 181.819,183.236 C179.687,183.236 177.953,181.502 177.953,179.369 z M182.418,194.256 C182.372,194.323 182.324,194.382 182.273,194.432 L179.131,183.888 C179.92,184.359 180.837,184.634 181.819,184.634 C184.723,184.634 187.085,182.273 187.085,179.369 C187.085,176.466 184.723,174.104 181.819,174.104 C178.916,174.104 176.554,176.466 176.554,179.369 C176.554,179.899 176.635,180.41 176.781,180.892 C176.782,180.895 176.78,180.898 176.782,180.902 L180.375,192.96 C178.495,190.018 174.128,182.816 174.128,179.369 C174.128,175.128 177.578,171.677 181.819,171.677 C186.061,171.677 189.511,175.128 189.511,179.369 C189.511,183.736 182.488,194.151 182.418,194.256 z M181.819,170.279 C176.807,170.279 172.729,174.357 172.729,179.369 C172.729,184.163 179.764,194.598 180.064,195.04 C180.504,195.69 181.144,196.064 181.819,196.064 L181.821,196.064 C181.832,196.064 181.842,196.059 181.853,196.059 C182.516,196.047 183.142,195.679 183.575,195.04 C183.875,194.598 190.91,184.163 190.91,179.369 C190.91,174.357 186.832,170.279 181.819,170.279" fill="#000000"/>
  </g>
</svg>
