<?xml version="1.0" encoding="UTF-8"?>
<!DOCTYPE svg PUBLIC "-//W3C//DTD SVG 1.1//EN" "http://www.w3.org/Graphics/SVG/1.1/DTD/svg11.dtd">
<svg version="1.1" xmlns="http://www.w3.org/2000/svg" xmlns:xlink="http://www.w3.org/1999/xlink" x="0" y="0" width="98.246" height="98.244" viewBox="0, 0, 49.123, 49.122">
  <g id="Layer_2" transform="translate(-240.312, -157.61)">
    <g>
      <path d="M264.873,159.009 C252.101,159.009 241.711,169.399 241.711,182.171 C241.711,194.943 252.101,205.333 264.873,205.333 C277.645,205.333 288.037,194.943 288.037,182.171 C288.037,169.399 277.645,159.009 264.873,159.009 z M264.873,206.732 C251.331,206.732 240.312,195.715 240.312,182.171 C240.312,168.629 251.331,157.61 264.873,157.61 C278.417,157.61 289.435,168.629 289.435,182.171 C289.435,195.715 278.417,206.732 264.873,206.732" fill="#000000"/>
      <path d="M265.544,192.799 L265.544,192.331 C265.544,191.944 265.23,191.632 264.845,191.632 C264.458,191.632 264.145,191.944 264.145,192.331 L264.145,192.799 C258.823,192.452 254.563,188.192 254.217,182.87 L254.684,182.87 C255.071,182.87 255.384,182.557 255.384,182.171 C255.384,181.785 255.071,181.471 254.684,181.471 L254.217,181.471 C254.563,176.151 258.823,171.891 264.145,171.543 L264.145,172.012 C264.145,172.399 264.458,172.712 264.845,172.712 C265.23,172.712 265.544,172.399 265.544,172.012 L265.544,171.543 C270.864,171.891 275.124,176.151 275.473,181.471 L275.003,181.471 C274.616,181.471 274.304,181.785 274.304,182.171 C274.304,182.557 274.616,182.87 275.003,182.87 L275.473,182.87 C275.124,188.192 270.864,192.452 265.544,192.799 z M264.845,170.109 C258.193,170.109 252.782,175.52 252.782,182.171 C252.782,188.822 258.193,194.233 264.845,194.233 C271.495,194.233 276.906,188.822 276.906,182.171 C276.906,175.52 271.495,170.109 264.845,170.109" fill="#000000"/>
      <path d="M265.538,182.866 L262.079,184.935 L264.149,181.475 L267.607,179.408 L265.538,182.866 z M269.276,176.78 L263.279,180.365 C263.181,180.426 263.098,180.508 263.039,180.607 L259.451,186.604 C259.287,186.88 259.331,187.231 259.558,187.458 C259.691,187.593 259.872,187.663 260.052,187.663 C260.175,187.663 260.3,187.63 260.411,187.564 L266.408,183.976 C266.507,183.917 266.59,183.835 266.648,183.735 L270.234,177.739 C270.4,177.465 270.356,177.112 270.13,176.885 C269.903,176.659 269.552,176.617 269.276,176.78" fill="#000000"/>
    </g>
  </g>
</svg>
