<?xml version="1.0" encoding="UTF-8"?>
<!DOCTYPE svg PUBLIC "-//W3C//DTD SVG 1.1//EN" "http://www.w3.org/Graphics/SVG/1.1/DTD/svg11.dtd">
<svg version="1.1" xmlns="http://www.w3.org/2000/svg" xmlns:xlink="http://www.w3.org/1999/xlink" x="0" y="0" width="98.242" height="98.242" viewBox="0, 0, 49.121, 49.121">
  <g id="Layer_2" transform="translate(-410.037, -158.611)">
    <g>
      <g>
        <path d="M437.485,194.171 L446.589,194.171 L445.263,190.591 C444.527,188.601 442.624,187.275 440.502,187.275 L429.694,187.275 C427.572,187.275 425.669,188.595 424.933,190.591 L423.606,194.171 L437.494,194.171" fill-opacity="0" stroke="#000000" stroke-width="1.3" stroke-linecap="round" stroke-linejoin="round" stroke-miterlimit="10"/>
        <path d="M440.177,178.251 C440.177,180.916 439.036,185.617 435.098,185.617 C431.159,185.617 430.018,180.916 430.018,178.251 C430.018,175.585 432.432,173.171 435.098,173.171 C437.763,173.171 440.177,175.585 440.177,178.251 z" fill-opacity="0" stroke="#000000" stroke-width="1.3" stroke-linecap="round" stroke-linejoin="round" stroke-miterlimit="10"/>
      </g>
      <path d="M434.598,160.009 C421.826,160.009 411.436,170.399 411.436,183.171 C411.436,195.943 421.826,206.334 434.598,206.334 C447.37,206.334 457.76,195.943 457.76,183.171 C457.76,170.399 447.37,160.009 434.598,160.009 z M434.598,207.732 C421.055,207.732 410.037,196.714 410.037,183.171 C410.037,169.628 421.055,158.611 434.598,158.611 C448.141,158.611 459.158,169.628 459.158,183.171 C459.158,196.714 448.141,207.732 434.598,207.732" fill="#000000"/>
    </g>
  </g>
</svg>
